# xmcd
#
# Track frame offsets: 
#        150
#        15122
#        35215
#        53017
#        66490
#        81940
#        101395
#        119515
#        132940
#        151440
#        162565
#        176200
#        196690
#        209515
#
# Disc length: 3002 seconds
#
# Revision: 0
# Processed by: cddbd v1.5.2PL0 Copyright (c) Steve Scherf et al.
# Submitted via: ExactAudioCopy v0.95a5
#
DISCID=c30bb80e
DTITLE=Various Artist - Garden Angels
DYEAR=1900
DGENRE=National Folk
TTITLE0=Astor liom gra mo chroi
TTITLE1=Homes of Donegal 
TTITLE2=Home again inEireann
TTITLE3=Will ye go,Lassie,go?
TTITLE4=Hold me now(till I die)
TTITLE5=Wish I could
TTITLE6=Old oak tree
TTITLE7=Follow my up to Garlow
TTITLE8=Criost Liom
TTITLE9=She move through the fair
TTITLE10=Spinning wheel
TTITLE11=For you 
TTITLE12=The harp that once
TTITLE13=Harp of Dagda
EXTD=
EXTT0=
EXTT1=
EXTT2=
EXTT3=
EXTT4=
EXTT5=
EXTT6=
EXTT7=
EXTT8=
EXTT9=
EXTT10=
EXTT11=
EXTT12=
EXTT13=
PLAYORDER=
